<?xml version="1.0" encoding="UTF-8"?>
<svg width="128pt" height="128pt" version="1.1" viewBox="0 0 128 128" xmlns="http://www.w3.org/2000/svg">
 <path d="m118.2 100.4c-0.003906 2.1367-1.7383 3.8672-3.875 3.8711h-100.64c-2.1367-0.003907-3.8672-1.7344-3.8711-3.8711v-72.809-0.10156l51.75 42.199h0.003906c1.4219 1.1602 3.4648 1.1602 4.8906 0l51.738-42.199v0.10156 72.809zm-7.6367-76.676h-93.117l46.559 37.973zm3.7656-7.7422h-100.65c-6.4102 0.007813-11.605 5.2031-11.609 11.613v72.809c0.003906 6.4102 5.1992 11.605 11.609 11.613h100.64c6.4141-0.007812 11.609-5.2031 11.613-11.617v-72.809c-0.007813-6.4102-5.2031-11.602-11.613-11.609z" fill-rule="evenodd"/>
</svg>
