<?xml version="1.0" encoding="UTF-8"?>
<svg width="100pt" height="100pt" version="1.1" viewBox="0 0 100 100" xmlns="http://www.w3.org/2000/svg">
 <path d="m26.699 28.586c-2.0859 0-3.7773 1.6914-3.7773 3.7773 0 2.0859 1.6914 3.7773 3.7773 3.7773h46.602c2.0859 0 3.7773-1.6914 3.7773-3.7773 0-2.0859-1.6914-3.7773-3.7773-3.7773zm0 17.633c-2.0859 0-3.7773 1.6914-3.7773 3.7773 0 2.0859 1.6914 3.7773 3.7773 3.7773h46.602c2.0859 0 3.7773-1.6914 3.7773-3.7773 0-2.0859-1.6914-3.7773-3.7773-3.7773zm0 17.633c-2.0859 0-3.7773 1.6914-3.7773 3.7773 0 2.0859 1.6914 3.7773 3.7773 3.7773h46.602c2.0859 0 3.7773-1.6914 3.7773-3.7773 0-2.0859-1.6914-3.7773-3.7773-3.7773z"/>
</svg>
