<?xml version="1.0" encoding="UTF-8"?>
<svg width="128pt" height="128pt" version="1.1" viewBox="0 0 128 128" xmlns="http://www.w3.org/2000/svg">
 <g>
  <path d="m48.207 68.91v-5.2891c-2.8711-1.9648-5.5898-4.2305-8.1602-6.9531-7.2539 6.9531-14.207 11.484-14.961 11.938l-0.60547 0.45312-4.082-6.5 0.60547-0.30078c0.15234-0.15234 7.2539-4.6836 14.355-11.637-6.5-9.6719-9.0664-19.344-9.2188-19.645l-0.15234-0.75391 7.4062-1.9648 0.15234 0.75391c0 0.15234 2.1172 7.8594 7.1016 15.867 5.1367-6.1953 8.0078-12.09 8.7656-17.531h-30.828v-8.3125h16.926v-4.5352h8.0078v4.5352h16.926v8.3125h-3.3242c-0.90625 7.707-4.8359 15.566-11.789 23.727 1.0586 1.0586 1.9648 1.9648 2.8711 2.8711v-3.7773c0-2.8711 2.2656-4.9883 4.9883-4.9883h22.215v-39.293c0-0.60547-0.60547-1.207-1.207-1.207h-71.633c-0.75391 0-1.3594 0.60547-1.3594 1.207v71.633c0 0.75391 0.60547 1.3594 1.3594 1.3594h45.641v-9.9727z" fill-rule="evenodd"/>
  <path d="m89.16 71.027h-0.15234c-0.60547 2.7188-1.3594 6.1953-2.1172 8.918l-2.7188 9.6719h10.125l-2.8711-9.6719c-0.75391-2.7188-1.5117-6.1953-2.2656-8.918z" fill-rule="evenodd"/>
  <path d="m125.43 49.113h-71.633c-0.75391 0-1.207 0.60547-1.207 1.207v71.781c0 0.60547 0.45312 1.207 1.207 1.207h71.633c0.75391 0 1.207-0.60547 1.207-1.207v-71.781c0-0.60547-0.45312-1.207-1.207-1.207zm-25.992 59.996-3.625-11.789h-13.148l-3.1719 11.789h-10.73l13.902-45.789h13.602l14.207 45.789z" fill-rule="evenodd"/>
  <path d="m81.605 6.3477h23.273c5.5898 0 10.277 4.5352 10.277 10.277v11.484h4.8359l-3.9297 7.4062-3.9297 7.2539-3.9297-7.2539-4.082-7.4062h4.8359v-11.484c0-2.2656-1.8125-4.082-4.082-4.082h-23.273v-6.1953z"/>
  <path d="m47.301 120.29h-26.898c-5.7422 0-10.426-4.6836-10.426-10.277v-11.484h-4.8359l4.082-7.4062 3.9297-7.4062 7.8594 14.812h-4.6836v11.484c0 2.2656 1.8125 4.082 4.082 4.082h26.898v6.1953z"/>
 </g>
</svg>
